<svg width="37" height="36" viewBox="0 0 37 36" fill="none" xmlns="http://www.w3.org/2000/svg">
<path d="M32 7L29.038 9.26683C28.6891 9.53387 28.2619 9.67857 27.8225 9.67857H20.9972C20.2339 9.67857 19.5371 10.1131 19.2012 10.7985L18.6906 11.8406C18.2852 12.668 18.4975 13.6654 19.2048 14.2559L25.1576 19.2258C26.6989 20.5126 27.4944 22.485 27.2771 24.4811L26.8401 28.4942C26.7802 29.0442 26.6634 29.5865 26.4916 30.1124L25.875 32" stroke="#196BAD" stroke-width="2"/>
<path d="M2 15.75L9.90349 14.4533C11.2577 14.2312 12.4283 15.4077 12.1992 16.7608L11.3866 21.5601C11.0913 23.3044 11.9769 25.0355 13.5641 25.8167L15.8186 26.9264C17.0903 27.5523 17.7504 28.9827 17.4015 30.3565L16.2222 35" stroke="#196BAD" stroke-width="2"/>
<circle cx="19" cy="18" r="17" stroke="#196BAD" stroke-width="2"/>
</svg>
